<svg xmlns="http://www.w3.org/2000/svg" viewBox="0 0 512 512" role="img" aria-labelledby="title desc">
  <title id="title">SpeakUp app icon</title>
  <desc id="desc">A calm communication icon with a speech bubble, signal cards, and Gemma star.</desc>
  <defs>
    <linearGradient id="bg" x1="64" x2="448" y1="64" y2="448" gradientUnits="userSpaceOnUse">
      <stop stop-color="#D9F4EC"/>
      <stop offset="0.52" stop-color="#F7F6E8"/>
      <stop offset="1" stop-color="#DCEBFA"/>
    </linearGradient>
    <filter id="shadow" x="-10%" y="-10%" width="120%" height="120%">
      <feDropShadow dx="0" dy="16" stdDeviation="18" flood-color="#0F3B3A" flood-opacity="0.18"/>
    </filter>
  </defs>
  <rect width="512" height="512" rx="112" fill="url(#bg)"/>
  <path d="M63 334c73-15 114-10 171 22 67 37 131 39 215 8v83H63z" fill="#BFE6DE" opacity="0.7"/>
  <g filter="url(#shadow)">
    <path d="M134 126h244c34 0 62 28 62 62v104c0 34-28 62-62 62H269l-74 60c-12 10-30 1-30-15v-45h-31c-34 0-62-28-62-62V188c0-34 28-62 62-62z" fill="#FFFFFF"/>
  </g>
  <rect x="136" y="193" width="82" height="78" rx="22" fill="#0F766E"/>
  <rect x="239" y="193" width="82" height="78" rx="22" fill="#3B82F6"/>
  <rect x="342" y="193" width="50" height="78" rx="22" fill="#F59E0B"/>
  <path d="M170 227c11-16 25-16 36 0M165 246c17 18 35 18 52 0" fill="none" stroke="#fff" stroke-width="14" stroke-linecap="round"/>
  <path d="M279 215v34M262 232h34" stroke="#fff" stroke-width="15" stroke-linecap="round"/>
  <circle cx="367" cy="232" r="14" fill="#fff"/>
  <path d="M408 99l12 26 27 11-27 11-12 26-12-26-27-11 27-11z" fill="#0F766E"/>
</svg>
